<?xml version="1.0" encoding="UTF-8" standalone="no"?>
<!-- Created with Inkscape (http://www.inkscape.org/) -->

<svg
   width="210mm"
   height="297mm"
   viewBox="0 0 210 297"
   version="1.1"
   id="svg5"
   inkscape:version="1.2.2 (b0a8486541, 2022-12-01)"
   sodipodi:docname="logo.svg"
   inkscape:export-filename="logo_plain.svg"
   inkscape:export-xdpi="96"
   inkscape:export-ydpi="96"
   xmlns:inkscape="http://www.inkscape.org/namespaces/inkscape"
   xmlns:sodipodi="http://sodipodi.sourceforge.net/DTD/sodipodi-0.dtd"
   xmlns="http://www.w3.org/2000/svg"
   xmlns:svg="http://www.w3.org/2000/svg">
  <sodipodi:namedview
     id="namedview7"
     pagecolor="#ffffff"
     bordercolor="#000000"
     borderopacity="0.25"
     inkscape:showpageshadow="2"
     inkscape:pageopacity="0.0"
     inkscape:pagecheckerboard="0"
     inkscape:deskcolor="#d1d1d1"
     inkscape:document-units="mm"
     showgrid="false"
     inkscape:zoom="1.0557596"
     inkscape:cx="149.65528"
     inkscape:cy="455.59613"
     inkscape:window-width="1920"
     inkscape:window-height="1008"
     inkscape:window-x="0"
     inkscape:window-y="0"
     inkscape:window-maximized="1"
     inkscape:current-layer="layer1" />
  <defs
     id="defs2" />
  <g
     inkscape:label="Layer 1"
     inkscape:groupmode="layer"
     id="layer1">
    <path
       id="rect238"
       style="fill:#ffffff;stroke:#000000;stroke-width:2"
       d="m 27.238405,67.3507 h 36.266003 v 36.266 H 27.238405 Z" />
    <path
       id="rect238-3"
       style="fill:#ffffff;stroke:#000000;stroke-width:2"
       d="M 63.727711,67.400108 H 99.993713 V 103.66611 H 63.727711 Z" />
    <path
       id="rect238-7"
       style="fill:#ffffff;stroke:#000000;stroke-width:2"
       d="M 99.971588,67.425842 H 136.23759 V 103.69184 H 99.971588 Z" />
    <path
       id="rect238-5"
       style="fill:#ffffff;stroke:#000000;stroke-width:2"
       transform="rotate(-90)"
       d="m -165.5748,155.62363 h 36.266 v 36.266 h -36.266 z" />
    <path
       id="rect238-3-3"
       style="fill:#ffffff;stroke:#000000;stroke-width:2"
       transform="rotate(-90)"
       d="m -129.08551,155.67303 h 36.266002 v 36.26601 h -36.266002 z" />
    <path
       id="rect238-7-5"
       style="fill:#ffffff;stroke:#000000;stroke-width:2"
       transform="rotate(-90)"
       d="m -92.841621,155.69878 h 36.266002 v 36.266 h -36.266002 z" />
    <path
       style="fill:#ffffff;fill-opacity:1;stroke:#000000;stroke-width:2;stroke-dasharray:none"
       d="M 27.809679,103.4472 63.323869,67.506267"
       id="path1050" />
    <path
       style="fill:#ffffff;fill-opacity:1;stroke:#000000;stroke-width:2;stroke-dasharray:none"
       d="M 99.878035,103.05252 63.524415,67.87499"
       id="path1052" />
    <path
       style="fill:#ffffff;fill-opacity:1;stroke:#000000;stroke-width:2;stroke-dasharray:none"
       d="m 155.57502,56.400234 35.91302,36.230178"
       id="path1054" />
    <path
       style="fill:#ffffff;fill-opacity:1;stroke:#000000;stroke-width:2;stroke-dasharray:none"
       d="m 191.9289,129.2165 -36.20009,36.22149"
       id="path1056" />
    <g
       aria-label="S"
       id="text1112-6"
       style="font-size:18.3444px;font-family:Tagesschrift;-inkscape-font-specification:Tagesschrift;text-align:center;text-anchor:middle;fill:#ffffff;stroke:#000000;stroke-width:2">
      <path
         d="m 34.182978,85.59986 q -0.3302,-0.09172 -0.531988,-0.1651 -0.201788,-0.05503 -0.201788,-0.05503 0.03669,-0.09172 -0.03669,-0.165099 -0.05503,-0.07338 -0.256822,-0.09172 -0.275166,-0.1651 -0.513643,-0.421922 -0.220133,-0.238477 -0.366888,-0.476954 -0.146755,-0.238477 -0.220133,-0.403577 -0.128411,-0.275166 -0.128411,-0.330199 0.01835,-0.07338 0.220133,-0.1651 0.201789,-0.146755 0.293511,-0.09172 0.110066,0.05503 0.256821,0.366888 0.238477,0.421922 0.807154,0.642054 0.587021,0.220133 1.302452,0.201789 0.733776,-0.03669 1.394175,-0.330199 0.678742,-0.275166 0.843842,-0.568677 0.183444,-0.311855 -0.128411,-0.788809 -0.05503,-0.146755 -0.128411,-0.238477 -0.07338,-0.09172 -0.238477,-0.238477 Q 36.40265,82.132768 36.054106,81.802569 35.77894,81.674158 35.540463,81.564092 35.32033,81.454026 35.063509,81.325615 34.769998,81.17886 34.348077,80.903694 33.9445,80.610183 33.577612,80.26164 33.210724,79.913096 33.045625,79.619586 32.752114,79.34442 32.605359,78.867465 q -0.146755,-0.495299 -0.110066,-1.045631 0.03669,-0.550332 0.275166,-0.990597 0.110066,-0.256822 0.366888,-0.62371 0.275166,-0.385232 0.605365,-0.770465 0.330199,-0.385232 0.642054,-0.697087 0.311855,-0.311855 0.513643,-0.440266 0.146755,-0.146755 0.311855,-0.29351 0.1651,-0.1651 0.1651,-0.1651 0.01834,-0.09172 0.05503,-0.09172 0.05503,0 0.05503,0 0.09172,-0.05503 0.403577,-0.183444 0.311855,-0.12841 0.678743,-0.476954 1.229074,-0.587021 1.999539,-0.862187 0.770465,-0.275166 1.265764,-0.275166 v 0 0 q 0.45861,0.01834 0.825498,0.220133 0.385232,0.183444 0.62371,0.495299 0.256821,0.311855 0.311854,0.75212 0.128411,0.440266 -0.07338,1.027287 -0.201789,0.568676 -0.605365,1.082319 -0.385233,0.495299 -0.843843,0.752121 -0.513643,0.220132 -0.697087,0.201788 -0.1651,-0.03669 -0.146755,-0.385232 0,-0.146756 0.09172,-0.348544 0.110066,-0.201788 0.568676,-0.715432 0.587021,-0.862186 0.715432,-1.37583 0.128411,-0.513643 -0.238477,-0.568676 -0.110067,-0.03669 -0.403577,0 -0.275166,0.03669 -0.62371,0.110066 -0.330199,0.05503 -0.568676,0.128411 -0.238478,0.05503 -0.238478,0.09172 0,0 0,0.05503 0,0.05503 -0.07338,0.03669 -0.03669,0 -0.311855,0.146755 -0.275166,0.146756 -0.660398,0.385233 -0.385233,0.238477 -0.770465,0.476954 -0.385233,0.238477 -0.660399,0.421921 -0.256821,0.1651 -0.275166,0.201789 -0.03669,0.201788 -0.421921,0.366888 -0.366888,0.220133 -0.678743,0.642054 -0.29351,0.421921 -0.660398,1.045631 -0.311855,0.421921 -0.440266,0.91722 -0.12841,0.476954 0,0.770465 0.09172,0.29351 0.568677,0.75212 0.476954,0.45861 1.192386,0.880531 0.623709,0.348544 1.119008,0.697087 0.495299,0.3302 0.807154,0.642054 0.330199,0.311855 0.440265,0.550332 0.220133,0.311855 0.311855,0.642054 0.110067,0.311855 0.110067,0.605366 0.01834,0.29351 -0.05503,0.531987 -0.12841,0.293511 -0.45861,0.605365 -0.311854,0.311855 -0.531987,0.293511 -0.201789,0.05503 -0.311855,0.128411 -0.09172,0.07338 -0.220133,0.12841 -0.128411,0.07338 -0.550332,0.146756 -0.403577,0.07338 -0.898875,0.09172 -0.495299,0.03669 -0.91722,0.01834 z"
         style="font-family:Caveat;-inkscape-font-specification:Caveat;fill:#000080;stroke:#000080"
         id="path4910" />
    </g>
    <g
       aria-label="P"
       id="text1112-63"
       style="font-size:18.3444px;font-family:Tagesschrift;-inkscape-font-specification:Tagesschrift;text-align:center;text-anchor:middle;fill:#ffffff;stroke:#000000;stroke-width:2">
      <path
         d="m 48.995478,99.259254 q -0.220133,0 -0.366888,-0.238477 -0.110066,-0.110066 -0.146755,-0.311855 -0.01834,-0.183444 0.128411,-0.678742 0.146755,-0.513644 0.495299,-1.559274 0.183444,-0.697088 0.29351,-1.008943 0.110066,-0.330199 0.110066,-0.476954 0,-0.201788 0.03669,-0.330199 0.05503,-0.146755 0.05503,-0.275166 0.110067,0 0.220133,-0.201789 0.110067,-0.201788 0.183444,-0.550332 0.07338,-0.311854 0.128411,-0.495298 0.07338,-0.201789 0.07338,-0.275166 0.09172,-0.146756 0.183444,-0.45861 0.110066,-0.311855 0.330199,-0.752121 0.146755,-0.550332 0.330199,-1.137353 0.183444,-0.605365 0.366888,-1.119008 0.201788,-0.531988 0.330199,-0.825498 0.201789,-0.568676 0.311855,-0.788809 0.110066,-0.238477 0,-0.311855 -0.128411,-0.09172 -0.05503,-0.311855 0.07338,-0.220133 0.403577,-0.495299 0.201788,-0.238477 0.348543,-0.330199 0.146755,-0.110066 0.366888,-0.110066 0.238477,0 0.678743,0.03669 0.330199,0.01834 0.697087,0.01834 0.385233,0 0.476955,0 0.165099,0.07338 0.403576,0.165099 0.238478,0.07338 0.421922,0.146756 0.201788,0.07338 0.201788,0.12841 0,0.110067 0.07338,0.146756 0.09172,0.01834 0.183444,0.03669 0.128411,0 0.348543,0.201789 0.220133,0.183444 0.45861,0.476954 0.238478,0.275166 0.366888,0.587021 0.146756,0.311855 0.220133,0.587021 0.09172,0.275166 0,0.788809 -0.01834,0.275166 -0.09172,0.550332 -0.05503,0.275166 -0.128411,0.366888 -0.110066,0.07338 -0.201788,0.183444 -0.09172,0.110067 -0.09172,0.201789 0,0.07338 -0.128411,0.29351 -0.128411,0.201788 -0.330199,0.476954 -0.201788,0.275166 -0.440266,0.550332 -0.238477,0.275166 -0.45861,0.476955 -0.238477,0.29351 -0.568676,0.550332 -0.311855,0.256821 -0.568677,0.421921 -0.476954,0.220133 -1.063975,0.440266 -0.568676,0.220132 -1.100664,0.366888 -0.513643,0.146755 -0.862187,0.12841 -0.531987,0.07338 -0.697087,0.146756 -0.146755,0.05503 -0.220133,0.311854 -0.09172,0.238478 -0.183444,0.495299 -0.07338,0.238477 -0.07338,0.330199 -0.03669,0.07338 -0.183444,0.45861 -0.128411,0.366889 -0.293511,0.862187 -0.146755,0.495299 -0.29351,0.972254 -0.146755,0.476954 -0.220133,0.788809 -0.07338,0.256821 -0.183444,0.29351 -0.110066,0.05503 -0.275166,0.05503 z m 2.274706,-5.686764 q 0.07338,0.07338 0.568676,0.01834 0.495299,-0.05503 1.063975,-0.275166 0.366888,-0.128411 0.733776,-0.311855 0.385233,-0.183444 0.733776,-0.403577 0.183444,-0.128411 0.550332,-0.45861 0.366888,-0.330199 0.733776,-0.788809 0.05503,-0.09172 0.183444,-0.348544 0.146756,-0.275166 0.256822,-0.513643 0.1651,-0.256822 0.330199,-0.75212 0.1651,-0.513644 0.07338,-0.843843 -0.09172,-0.476954 -0.476954,-0.880531 -0.385233,-0.421921 -0.917221,-0.568676 -0.403576,-0.07338 -0.678742,-0.07338 -0.256822,0 -0.568677,0.05503 -0.29351,0.09172 -0.440265,0.256822 -0.128411,0.165099 -0.348544,0.697087 -0.128411,0.256822 -0.366888,0.788809 -0.238477,0.513643 -0.403577,0.972253 -0.330199,1.210731 -0.660398,1.99954 -0.311855,0.770465 -0.385233,0.972253 0.01835,0.201789 -0.01834,0.293511 -0.03669,0.07338 0.03669,0.165099 z"
         style="font-family:Caveat;-inkscape-font-specification:Caveat;fill:#000080;stroke:#000080"
         id="path4907" />
    </g>
    <g
       aria-label="L"
       id="text1112-8"
       style="font-size:18.3444px;font-family:Tagesschrift;-inkscape-font-specification:Tagesschrift;text-align:center;text-anchor:middle;fill:#ffffff;stroke:#000000;stroke-width:2">
      <path
         d="m 71.782219,97.83608 q -0.733776,-0.183444 -1.320797,-0.733776 -0.568676,-0.550333 -0.733776,-1.137353 -0.01834,-0.238478 -0.05503,-0.62371 -0.01834,-0.385232 -0.01834,-0.715432 0.01834,-0.330199 0.05503,-0.385232 0.05503,-0.03669 0.05503,-0.220133 -0.01834,-0.07338 0.01834,-0.238477 0.05503,-0.183444 0.110066,-0.366888 0.09172,-0.220133 0.09172,-0.348544 0,-0.146755 -0.01834,-0.220132 0,0 0.05503,-0.110067 0.05503,-0.128411 0.128411,-0.201788 0.110066,-0.110067 0.09172,-0.220133 0,-0.110066 0,-0.110066 -0.01835,-0.07338 0.03669,-0.201789 0.05503,-0.128411 0.110067,-0.201788 0.03669,-0.03669 0.09172,-0.146755 0.07338,-0.128411 0.07338,-0.128411 0,-0.05503 0.07338,-0.293511 0.09172,-0.238477 0.201788,-0.513643 0.110067,-0.29351 0.201789,-0.531987 0.110066,-0.238478 0.165099,-0.311855 v -0.03669 q 0.07338,-0.183444 0.201789,-0.385232 0.01834,-0.09172 0.09172,-0.293511 0.07338,-0.220133 0.165099,-0.421921 0.201789,-0.440266 0.495299,-0.990598 0.311855,-0.568676 0.660399,-1.119008 0.348543,-0.568677 0.660398,-1.008942 0.330199,-0.45861 0.568676,-0.678743 0.311855,-0.348544 0.495299,-0.366888 0.183444,-0.01834 0.45861,0.256822 0.128411,0.12841 0.183444,0.311854 0.05503,0.183444 0.03669,0.3302 0,0.12841 -0.07338,0.146755 -0.12841,0.07338 -0.385232,0.421921 -0.256822,0.330199 -0.587021,0.788809 -0.311855,0.45861 -0.623709,0.953909 -0.293511,0.476955 -0.513644,0.862187 -0.238477,0.531988 -0.440265,0.935564 -0.201789,0.385233 -0.201789,0.385233 -0.01834,0.05503 -0.03669,0.09172 -0.01835,0.03669 -0.03669,0.07338 -0.275166,0.568677 -0.45861,1.045631 -0.183444,0.45861 -0.366888,0.972253 -0.110067,0.128411 -0.128411,0.256822 -0.01834,0.128411 -0.01834,0.128411 -0.03669,-0.01834 -0.05503,0.09172 -0.01834,0.09172 -0.07338,0.220133 -0.09172,0.07338 -0.110067,0.238477 -0.01834,0.146755 -0.01834,0.29351 -0.128411,0.330199 -0.238477,0.807154 -0.110067,0.45861 -0.1651,0.898875 -0.03669,0.421922 -0.01834,0.660399 0.03669,0.311855 0.311855,0.568676 0.29351,0.238477 0.697087,0.403577 0.201788,0.07338 0.348543,0.128411 0.146756,0.03669 0.275166,0.03669 0.146756,0.01834 0.366888,0 0.238478,-0.03669 0.642054,-0.110067 h -0.01834 q 0.238477,-0.03669 0.495299,-0.09172 0.275166,-0.07338 0.513643,-0.128411 0.220133,-0.03669 0.421921,-0.07338 0.201789,-0.05503 0.311855,-0.09172 0.403577,-0.110067 0.587021,-0.146755 0.183444,-0.05503 0.275166,0.01834 0.09172,0.07338 0.128411,0.183444 0.03669,0.09172 -0.01834,0.256822 -0.03669,0.09172 -0.29351,0.275166 -0.256822,0.165099 -0.62371,0.330199 -0.348543,0.1651 -0.697087,0.275166 -0.366888,0.1651 -0.880531,0.256822 -0.495299,0.09172 -0.972253,0.09172 -0.45861,0 -0.752121,-0.09172 z"
         style="font-family:Caveat;-inkscape-font-specification:Caveat;fill:#000080;stroke:#000080"
         id="path4904" />
    </g>
    <g
       aria-label="I"
       id="text1112-2"
       style="font-size:18.3444px;font-family:Tagesschrift;-inkscape-font-specification:Tagesschrift;text-align:center;text-anchor:middle;fill:#ffffff;stroke:#000000;stroke-width:2">
      <path
         d="m 87.715484,84.169476 q -0.12841,-0.201788 -0.58702,-0.256822 -0.440266,-0.05503 -1.08232,-0.01834 -0.256822,0.03669 -0.495299,-0.03669 -0.238477,-0.05503 -0.385232,-0.201788 -0.128411,-0.128411 -0.09172,-0.275166 0.01834,-0.220133 0.366888,-0.348544 0.366888,-0.128411 1.155697,-0.146755 l 0.972253,-0.01834 0.183444,-0.366888 q 0.07338,-0.201789 0.183444,-0.568677 0.110067,-0.366888 0.238477,-0.788809 0.07338,-0.256822 0.220133,-0.697087 0.146755,-0.440266 0.311855,-0.935565 0.1651,-0.495299 0.29351,-0.880531 0.128411,-0.403577 0.1651,-0.568676 0.07338,-0.1651 0.201788,-0.550332 0.128411,-0.403577 0.238478,-0.807154 0.12841,-0.421921 0.165099,-0.605365 0.476955,-1.449208 0.62371,-2.054573 0.146755,-0.62371 0.07338,-0.642054 -0.07338,0 -0.366888,0.01834 -0.275166,0.01834 -0.623709,0.05503 -0.330199,0.01834 -0.605365,0.05503 -0.256822,0.03669 -0.311855,0.07338 -0.09172,0.128411 -0.311855,0.05503 -0.220133,-0.07338 -0.275166,-0.256822 -0.01834,-0.1651 -0.01834,-0.256822 0.01834,-0.09172 0.110066,-0.146755 0.128411,-0.110066 0.495299,-0.238477 0.366888,-0.146755 0.825498,-0.256822 0.476954,-0.110066 0.898875,-0.165099 0.311855,-0.03669 0.62371,-0.128411 0.311855,-0.110066 0.495299,-0.256822 0.165099,-0.05503 0.311855,-0.09172 0.165099,-0.03669 0.330199,-0.01834 0.146755,0.09172 0.495299,0.09172 0.366888,0 0.770464,-0.01834 1.027287,-0.09172 1.37583,-0.05503 0.366888,0.03669 0.495299,0.293511 0.09172,0.348543 0.03669,0.550332 -0.05503,0.183444 -0.366888,0.165099 -0.1651,0.03669 -0.605365,0.07338 -0.421921,0.01834 -0.898876,0.03669 -1.302452,0.110066 -1.394174,0.256821 -0.07338,0.07338 -0.128411,0.146756 -0.03669,0.07338 -0.110066,0.165099 0.01834,0.07338 -0.09172,0.476955 -0.09172,0.385232 -0.238478,0.788809 -0.07338,0.238477 -0.220132,0.678743 -0.146756,0.440265 -0.311855,0.91722 -0.146755,0.45861 -0.275166,0.843842 -0.128411,0.366888 -0.183444,0.495299 -0.07338,0.165099 -0.128411,0.366888 -0.03669,0.183444 -0.05503,0.275166 -0.256822,0.898875 -0.45861,1.522585 -0.183444,0.62371 -0.348544,1.100664 -0.146755,0.45861 -0.275166,0.898876 -0.128411,0.421921 -0.275166,0.935564 0,0 0.275166,-0.01834 0.293511,-0.03669 0.770465,-0.07338 0.862187,-0.09172 1.229075,-0.110066 0.385232,-0.01834 0.513643,0.05503 0.128411,0.05503 0.183444,0.220133 0.366888,0.495299 0.09172,0.678743 -0.275166,0.183444 -1.302452,0.165099 -0.953909,0.03669 -1.467552,0.05503 -0.495299,0.03669 -0.697088,0.09172 -0.183444,0.05503 -0.220132,0.183444 0,0.146756 -0.146756,0.146756 -0.146755,0 -0.366888,-0.07338 z"
         style="font-family:Caveat;-inkscape-font-specification:Caveat;fill:#000080;stroke:#000080"
         id="path4901" />
    </g>
    <g
       aria-label="T"
       id="text1112-9"
       style="font-size:18.3444px;font-family:Tagesschrift;-inkscape-font-specification:Tagesschrift;text-align:center;text-anchor:middle;fill:#ffffff;stroke:#000000;stroke-width:2">
      <path
         d="m 116.22912,92.16881 q -0.14675,0 -0.3302,-0.238477 -0.18344,-0.238478 -0.1651,-0.45861 0.0184,-0.293511 0.1651,-0.843843 0.14676,-0.550332 0.3302,-1.119008 0.18345,-0.568677 0.3302,-0.898876 0.0734,-0.29351 0.12841,-0.513643 0.0734,-0.238477 0.0917,-0.311855 0.055,-0.07338 0.16509,-0.385232 0.12842,-0.311855 0.20179,-0.605366 0.0367,-0.146755 0.14676,-0.550332 0.12841,-0.421921 0.29351,-0.972253 0.18344,-0.550332 0.34854,-1.082319 0.18345,-0.531988 0.31186,-0.935565 0.12841,-0.403577 0.1651,-0.531987 0.14675,-0.220133 0.22013,-0.421922 0.0734,-0.201788 0.0917,-0.275166 0.11007,-0.07338 0.12841,-0.183444 0.0184,-0.12841 0.0184,-0.201788 0,-0.09172 0.055,-0.146755 0.0734,-0.05503 0.0734,-0.128411 0.0734,-0.05503 0.0917,-0.1651 0.0183,-0.12841 0.11007,-0.220132 l 0.0917,-0.311855 1.08232,-0.01834 q -0.0367,0.220133 -0.11007,0.550332 -0.0734,0.311855 -0.34854,0.843843 -0.0917,0.366888 -0.22013,0.660398 -0.11007,0.293511 -0.0917,0.385233 -0.0367,0.03669 -0.1651,0.366888 -0.11006,0.330199 -0.27516,0.807153 -0.14676,0.476955 -0.31186,0.953909 -0.14675,0.476954 -0.27516,0.843842 -0.11007,0.348544 -0.14676,0.440266 -0.14675,0.29351 -0.3302,0.862187 -0.18344,0.568676 -0.55033,1.54093 -0.14676,0.29351 -0.36689,0.880531 -0.20179,0.587021 -0.3302,1.063975 -0.20179,0.715432 -0.29351,0.990598 -0.0734,0.29351 -0.12841,0.311854 -0.055,0.03669 -0.20179,0.01834 z m 0.14676,-10.933263 q -0.51364,0.01834 -0.77047,-0.05503 -0.23847,-0.07338 -0.1651,-0.366888 0.055,-0.220133 0.23848,-0.330199 0.18345,-0.110067 0.53199,-0.1651 0.20179,-0.03669 0.51364,-0.09172 0.3302,-0.05503 0.62371,-0.110066 0.60537,-0.07338 0.9906,-0.128411 0.40358,-0.05503 0.8255,-0.09172 0.42192,-0.03669 1.06397,-0.07338 0.53199,-0.03669 0.89888,-0.05503 0.38523,-0.03669 0.38523,-0.03669 0.055,0 0.38523,0.03669 0.3302,0.03669 0.71543,0.09172 0.38524,0.05503 0.56868,0.128411 0.42192,0.09172 0.60537,0.256822 0.20178,0.165099 0.27516,0.476954 0.055,0.220133 0,0.275166 -0.055,0.03669 -0.20179,0.110066 -0.42192,0.128411 -0.62371,0.128411 -0.20178,0 -0.45861,-0.09172 -0.0917,-0.09172 -0.22013,-0.165099 -0.11006,-0.07338 -0.40358,-0.110067 -0.27516,-0.05503 -0.88053,-0.09172 -0.51364,0.05503 -0.89887,0.05503 -0.38523,0 -0.38523,0.09172 l -1.08232,0.05503 -0.89888,0.09172 q -0.18344,0.01834 -0.51364,0.05503 -0.3302,0.01834 -0.64206,0.05503 -0.31185,0.01834 -0.47695,0.05503 z"
         style="font-family:Caveat;-inkscape-font-specification:Caveat;fill:#000080;stroke:#000080"
         id="path4898" />
    </g>
    <g
       aria-label="W"
       id="text1112-88"
       style="font-size:18.3444px;font-family:Tagesschrift;-inkscape-font-specification:Tagesschrift;text-align:center;text-anchor:middle;fill:#ffffff;stroke:#000000;stroke-width:2">
      <path
         d="m 181.38101,72.726304 q -0.23848,0.01834 -0.44027,-0.110066 -0.18344,-0.110066 -0.25682,-0.29351 -0.0734,-0.09172 -0.22013,-0.311855 -0.14676,-0.220133 -0.18345,-0.440266 -0.055,-0.587021 -0.0734,-1.137353 0,-0.550332 0.055,-1.540929 0.055,-0.807154 0.20179,-1.559274 0.1651,-0.770465 0.31185,-1.37583 0.1651,-0.605366 0.25682,-0.953909 0.0917,-0.366888 0.0367,-0.366888 -0.0734,0 -0.22013,0.275166 -0.14676,0.256821 -0.3302,0.642054 -0.18345,0.385232 -0.36689,0.770465 -0.18344,0.366888 -0.31185,0.605365 -0.25683,0.568676 -0.60537,1.21073 -0.3302,0.62371 -0.67874,1.210731 -0.34855,0.587021 -0.60537,1.027286 -0.1651,0.183444 -0.38523,0.531988 -0.22013,0.330199 -0.47695,0.697087 -0.25683,0.366888 -0.53199,0.605365 -0.40358,0.385233 -0.80716,0.421921 -0.38523,0.03669 -0.66039,-0.201788 -0.055,-0.07338 -0.12841,-0.183444 -0.055,-0.09172 -0.0917,-0.256822 -0.0367,-0.165099 0.0183,-0.385232 -0.0183,-0.256822 0,-0.788809 0.0367,-0.550332 0.11006,-1.192386 0.0734,-0.660399 0.14676,-1.265764 0.0917,-0.605365 0.1651,-1.008942 0.1651,-1.174042 0.44026,-2.403116 0.29352,-1.229075 0.53199,-2.476494 0.14676,-0.366888 0.25682,-0.825498 0.12841,-0.476955 0.25683,-0.880532 0.0183,-0.403576 0.18344,-0.531987 0.1651,-0.146755 0.36689,-0.09172 0.22013,0.03669 0.34854,0.220133 0.18345,0.183444 0.27517,0.568676 0.11006,0.385232 -0.14676,0.972253 -0.36689,0.898876 -0.71543,2.201328 -0.3302,1.284108 -0.60536,3.118548 -0.0734,0.440266 -0.1651,1.045631 -0.0917,0.605365 -0.1651,1.174042 -0.0734,0.568676 -0.11007,0.953909 -0.0183,0.385232 0.0183,0.403576 0.14676,0.03669 0.40358,-0.220132 0.25682,-0.275166 0.45861,-0.715432 0.75212,-1.247419 1.4859,-2.604905 0.75212,-1.37583 1.43086,-2.714971 0.31186,-0.531988 0.62371,-1.155697 0.3302,-0.642054 0.62371,-1.174042 0.31185,-0.550332 0.56868,-0.990598 0.25682,-0.45861 0.44026,-0.75212 0.18345,-0.29351 0.29351,-0.330199 0.29351,0.01834 0.4953,0.146755 0.22013,0.110066 0.36689,0.476954 0.0367,0.09172 -0.0183,0.311855 -0.055,0.220133 -0.12841,0.385233 -0.0183,0.12841 -0.1651,0.531987 -0.12841,0.403577 -0.23847,0.898876 -0.18345,0.495299 -0.3302,0.990597 -0.12841,0.476955 -0.18345,0.78881 -0.14675,0.788809 -0.36688,1.742718 -0.22014,0.935564 -0.38524,1.871129 -0.14675,0.91722 -0.1651,1.650996 -0.0183,0.513643 0,0.807153 0.0367,0.293511 0.11007,0.45861 0.0367,0.146755 0.22013,0.183444 0.20179,0.03669 0.3302,-0.128411 0.36689,-0.45861 0.62371,-0.825498 0.27517,-0.385232 0.51364,-0.770464 0.23848,-0.403577 0.4953,-0.898876 0.45861,-0.843842 0.93557,-1.871129 0.4953,-1.045631 0.93556,-2.072917 0.45861,-1.027287 0.78881,-1.797751 0.34855,-0.990598 0.55033,-1.577619 0.22014,-0.587021 0.38524,-0.880531 0.1651,-0.29351 0.34854,-0.403577 0.0917,-0.07338 0.25682,-0.07338 0.1651,0 0.3302,0.146755 0.0734,0.07338 0.12841,0.238477 0.0734,0.146755 0.055,0.366888 -0.0917,0.29351 -0.33019,0.935564 -0.22014,0.642054 -0.51365,1.412519 -0.29351,0.770465 -0.56867,1.467552 -0.27517,0.697087 -0.47696,1.119009 -0.20179,0.385232 -0.38523,0.660398 -0.18345,0.275166 -0.18345,0.421921 0,0.07338 -0.18344,0.45861 -0.18344,0.366888 -0.47695,0.898876 -0.27517,0.531988 -0.60537,1.100664 -0.3302,0.568676 -0.62371,1.045631 -0.29351,0.476954 -0.4953,0.733776 -0.45861,0.568676 -0.89887,0.935564 -0.42192,0.366888 -0.73378,0.531988 -0.31185,0.165099 -0.44026,0.165099 z"
         style="font-family:Caveat;-inkscape-font-specification:Caveat;fill:#000080;stroke:#000080"
         id="path4895" />
    </g>
    <g
       aria-label="O"
       id="text1112-96"
       style="font-size:18.3444px;font-family:Tagesschrift;-inkscape-font-specification:Tagesschrift;text-align:center;text-anchor:middle;fill:#ffffff;stroke:#000000;stroke-width:2">
      <path
         d="m 161.14053,87.559301 q -0.67874,-0.513643 -0.86219,-0.788809 -0.18344,-0.29351 -0.22013,-0.697087 -0.0367,-0.330199 0,-0.898876 0.055,-0.568676 0.12841,-1.119008 0.0734,-0.550332 0.12841,-0.825498 0.0917,-0.09172 0.0734,-0.238477 0,-0.1651 0,-0.1651 -0.0183,-0.09172 0.12841,-0.476954 0.14676,-0.403577 0.27517,-1.027287 0.36689,-1.100664 0.69709,-1.83444 0.34854,-0.75212 0.67874,-1.284108 0.3302,-0.531987 0.6604,-0.972253 0.75212,-0.770465 1.21073,-1.155697 0.45861,-0.403577 1.02728,-0.660399 0.36689,-0.220133 0.67875,-0.348543 0.31185,-0.128411 0.51364,-0.03669 1.02729,0.220133 1.54093,0.843842 0.51364,0.605365 0.75212,1.889474 0.12841,0.807153 0.14675,1.467552 0.0367,0.642054 -0.0917,1.284108 -0.12841,0.623709 -0.47695,1.37583 -0.3302,0.75212 -0.93557,1.761062 -0.64205,1.265764 -1.4492,2.201328 -0.78881,0.935565 -1.63266,1.467552 -0.82549,0.550332 -1.6143,0.62371 -0.77047,0.07338 -1.35749,-0.385233 z m 1.17404,-0.531987 q 0.42192,-0.05503 0.80716,-0.256822 0.38523,-0.201788 0.80715,-0.587021 0.42192,-0.403577 0.95391,-1.008942 0.47695,-0.550332 0.77046,-0.91722 0.31186,-0.385232 0.51365,-0.770465 0.22013,-0.385232 0.40357,-0.935564 0.20179,-0.550332 0.45861,-1.430863 0.14676,-0.550332 0.22014,-0.91722 0.0734,-0.366888 0.0917,-0.678743 0.0183,-0.330199 0,-0.75212 0,-0.421922 0,-1.08232 -0.0183,-0.311855 -0.12841,-0.642054 -0.11007,-0.348544 -0.25682,-0.513643 -0.18345,-0.201789 -0.51365,-0.275166 -0.3302,-0.09172 -0.73377,0.09172 -0.22014,0.09172 -0.56868,0.421921 -0.34854,0.311855 -0.73378,0.733776 -0.38523,0.421921 -0.73377,0.862187 -0.3302,0.440265 -0.55033,0.788809 -0.20179,0.330199 -0.20179,0.45861 0,0 -0.0183,0.09172 0,0.09172 -0.0734,0.183444 -0.23848,0.256822 -0.53199,0.91722 -0.27517,0.660398 -0.53199,1.504241 -0.25682,0.825498 -0.44026,1.650996 -0.1651,0.807153 -0.20179,1.412519 -0.0367,0.495299 -0.0367,0.678743 0,0.183444 0.0734,0.29351 0.0734,0.09172 0.23847,0.366888 0.11007,0.183444 0.36689,0.275166 0.27517,0.09172 0.55033,0.03669 z"
         style="font-family:Caveat;-inkscape-font-specification:Caveat;fill:#000080;stroke:#000080"
         id="path4892" />
    </g>
    <g
       aria-label="R"
       id="text1112-85"
       style="font-size:18.3444px;font-family:Tagesschrift;-inkscape-font-specification:Tagesschrift;text-align:center;text-anchor:middle;fill:#ffffff;stroke:#000000;stroke-width:2">
      <path
         d="m 169.31332,116.60914 q -0.0734,0.18344 -0.27517,0.20179 -0.18344,0.0183 -0.4953,-0.22013 -0.22013,-0.22014 -0.29351,-0.34855 -0.055,-0.11006 0.0734,-0.40357 0.12841,-0.27517 0.44026,-0.9906 0.0734,-0.44027 0.25683,-0.88053 0.18344,-0.45861 0.27516,-0.64206 0.0734,-0.25682 0.29351,-0.84384 0.23848,-0.60537 0.53199,-1.33914 0.31185,-0.73378 0.58702,-1.37583 0.27517,-0.6604 0.40358,-0.9906 0.31185,-0.73377 0.64205,-1.54093 0.3302,-0.80715 0.89888,-2.03623 0.0734,-0.18344 0.0734,-0.38523 0.0183,-0.20179 -0.29352,-0.20179 -0.18344,-0.20179 -0.20178,-0.40357 -0.0183,-0.22014 0.18344,-0.31186 l 0.95391,-0.38523 q 0.86219,-0.20179 1.76106,-0.11007 0.91722,0.0734 1.72438,0.4953 0.88053,0.51364 1.24741,1.04563 0.36689,0.51364 0.36689,1.04563 0.0183,0.53199 -0.18344,1.04563 -0.14676,0.38524 -0.56868,0.84385 -0.40357,0.45861 -0.95391,0.91722 -0.53198,0.45861 -1.11901,0.84384 -0.56867,0.36689 -1.06397,0.56867 -0.45861,0.22014 -0.95391,0.38524 -0.4953,0.1651 -1.02729,0.3302 -0.29351,0.0734 -0.69708,0.0734 -0.40358,0 -0.60537,-0.0734 l -0.31185,0.86218 q -0.18345,0.6604 -0.64206,1.96285 -0.44026,1.30246 -1.02728,2.86173 z m 7.28272,0.20179 q -0.14675,0.055 -0.34854,0.0367 -0.18344,-0.0184 -0.60537,-0.29351 -0.80715,-0.47696 -1.6143,-1.1557 -0.80716,-0.67874 -1.8161,-1.83444 -0.38523,-0.45861 -0.6604,-0.84384 -0.25682,-0.38524 -0.55033,-1.08232 l -0.25682,-0.9906 0.4953,-0.27517 0.6604,0.6604 q 0.29351,0.64206 0.75212,1.22908 0.47695,0.58702 0.88053,1.04563 0.3302,0.38523 0.89887,0.93556 0.56868,0.53199 1.21073,1.02729 0.64206,0.4953 1.1557,0.75212 0.11007,0.0917 0.0734,0.27517 -0.0367,0.18344 -0.12841,0.33019 -0.0734,0.1651 -0.14676,0.18345 z m -4.73285,-6.82412 q 0.42192,-0.0367 0.9906,-0.20179 0.56867,-0.18344 1.13735,-0.42192 0.53199,-0.25682 1.11901,-0.60536 0.60536,-0.36689 1.11901,-0.80716 0.51364,-0.44026 0.82549,-0.91722 0.3302,-0.47695 0.29351,-0.95391 0,-0.23847 -0.18344,-0.49529 -0.18344,-0.25683 -0.44027,-0.45861 -0.25682,-0.20179 -0.49529,-0.27517 -0.73378,-0.18344 -1.21073,-0.23848 -0.47696,-0.055 -0.73378,0.0734 -0.25682,0.11007 -0.34854,0.47695 0,0.055 -0.14676,0.36689 -0.14675,0.31186 -0.36689,0.77047 -0.20179,0.45861 -0.40357,0.97225 -0.53199,1.08232 -0.80716,1.651 -0.27516,0.55033 -0.34854,0.77046 -0.0734,0.22013 0,0.29351 z"
         style="font-family:Caveat;-inkscape-font-specification:Caveat;fill:#000080;stroke:#000080"
         id="path4889" />
    </g>
    <g
       aria-label="D"
       id="text1112-1"
       style="font-size:18.3444px;font-family:Tagesschrift;-inkscape-font-specification:Tagesschrift;text-align:center;text-anchor:middle;fill:#ffffff;stroke:#000000;stroke-width:2">
      <path
         d="m 162.67616,147.71202 q -0.34855,0.055 -0.64206,0.055 -0.29351,0.0183 -0.86219,-0.12841 -0.29351,-0.0917 -0.42192,-0.22013 -0.11006,-0.12841 -0.38523,-0.47696 -0.20179,-0.29351 -0.29351,-0.55033 -0.0734,-0.23848 -0.0183,-0.38523 0.055,-0.12841 0.23847,-0.0734 0.055,0.0183 0.1651,0.11007 0.12841,0.11006 0.23848,0.25682 0.25682,0.27516 0.62371,0.36689 0.36689,0.0917 0.97225,0.0183 0.25682,-0.055 0.62371,-0.1651 0.36689,-0.0917 0.71543,-0.23848 0.34855,-0.14675 0.55034,-0.29351 0.97225,-0.66039 1.55927,-1.04563 0.58702,-0.38523 0.58702,-0.38523 0.0367,-0.0734 0.12841,-0.11007 0.11007,-0.055 0.25682,-0.11006 0.11007,-0.11007 0.34855,-0.34855 0.25682,-0.23847 0.47695,-0.47695 0.23848,-0.23848 0.29351,-0.27517 0.0367,-0.1651 0.0734,-0.25682 0.0367,-0.11006 0.0367,-0.22013 0.14675,-0.14676 0.38523,-0.60537 0.25682,-0.47695 0.51364,-1.04563 0.25683,-0.58702 0.36689,-1.06397 0.25682,-1.28411 0.12841,-2.16464 -0.12841,-0.88053 -0.53198,-1.50424 -0.38524,-0.64206 -0.97226,-1.13735 -0.20179,-0.1651 -0.56867,-0.34855 -0.34855,-0.20179 -0.73378,-0.34854 -0.38523,-0.14676 -0.67874,-0.23848 -0.27517,-0.0917 -0.3302,-0.0734 -0.0734,0.0183 -0.31186,0.58702 -0.22013,0.55034 -0.53198,1.41252 -0.31186,0.86219 -0.67875,1.83444 -0.34854,0.97226 -0.6604,1.83444 -0.11006,0.34855 -0.23847,0.73378 -0.12841,0.38523 -0.22014,0.67874 -0.0917,0.27517 -0.0917,0.36689 -0.20179,0.31185 -0.3302,0.8255 -0.11006,0.51364 -0.25682,1.70603 -0.1651,0.62371 -0.23848,0.95391 -0.0734,0.31185 -0.14675,0.29351 0,0 -0.0183,0.0183 0,0 -0.055,0.055 0,0.11007 -0.14675,0.11007 -0.14676,0 -0.34855,-0.0734 -0.18344,-0.0917 -0.29351,-0.20179 -0.055,-0.20178 -0.0734,-0.38523 0,-0.18344 0.14676,-0.71543 0.0917,-0.34854 0.22013,-0.84384 0.14676,-0.51365 0.31186,-1.04563 0.1651,-0.55034 0.31185,-1.00895 0.14676,-0.45861 0.22013,-0.69708 0.12842,-0.31186 0.36689,-1.17404 0.14676,-0.47696 0.29351,-0.95391 0.1651,-0.47696 0.31186,-0.84385 0.14675,-0.38523 0.20179,-0.49529 0.0917,-0.23848 0.27516,-0.80716 0.18345,-0.56867 0.47696,-1.26576 l 0.12841,-0.60537 -0.20179,-0.0917 q -0.22013,0.0734 -0.34854,0.055 -0.11007,-0.0367 -0.14676,-0.055 -0.11007,0.0367 -0.31185,-0.055 -0.20179,-0.0917 -0.36689,-0.23848 -0.14676,-0.14675 -0.18345,-0.25682 -0.0367,-0.0734 -0.055,-0.18344 0,-0.12842 0,-0.12842 0.0183,-0.11006 0.27517,-0.20178 0.25682,-0.11007 0.66039,-0.18345 0.42193,-0.0734 0.89888,-0.0917 0.4953,-0.0367 0.95391,0 0.47695,0.0367 0.89887,0.20179 0.42193,0.1651 0.91722,0.34854 0.58703,0.22014 1.22908,0.77047 0.6604,0.53198 1.19239,1.26576 0.55033,0.73378 0.73377,1.54093 0.055,0.22013 0.11007,0.62371 0.055,0.40358 0.055,0.78881 0.0183,0.36689 -0.0734,0.47695 -0.0367,0.0734 -0.055,0.18345 0,0.0917 0.0734,0.12841 -0.0183,0.055 -0.12841,0.42192 -0.11007,0.34854 -0.20179,0.60536 -0.0367,0.47696 -0.22013,0.9906 -0.18345,0.51365 -0.40358,0.97226 -0.22013,0.44026 -0.40358,0.75212 -0.0734,0 -0.14675,0.0367 -0.055,0.0183 0.0183,0.0367 0,0.0917 -0.20179,0.34855 -0.0734,0.055 -0.23847,0.27516 -0.14676,0.20179 -0.23848,0.27517 -0.0183,0.12841 -0.11007,0.22013 -0.0917,0.0734 -0.1651,0.0734 0,0 -0.0367,0 -0.0183,0 -0.0183,0.0734 -0.14676,0.22013 -0.45861,0.53198 -0.31186,0.29352 -0.71543,0.62371 -0.38523,0.31186 -0.80716,0.58703 -0.40357,0.27516 -0.77046,0.42192 -0.18344,0.12841 -0.38523,0.20178 -0.20179,0.0917 -0.38524,0.18345 -0.0917,0.0734 -0.40357,0.20179 -0.31186,0.14675 -0.67874,0.27516 -0.34855,0.12841 -0.62371,0.18345 z"
         style="font-family:Caveat;-inkscape-font-specification:Caveat;fill:#000080;stroke:#000080"
         id="path4886" />
    </g>
    <g
       aria-label="S"
       id="text1112-98"
       style="font-size:18.3444px;font-family:Tagesschrift;-inkscape-font-specification:Tagesschrift;text-align:center;text-anchor:middle;fill:#ffffff;stroke:#000000;stroke-width:2">
      <path
         d="m 179.49451,160.94913 q -0.3302,-0.0917 -0.53199,-0.1651 -0.20178,-0.055 -0.20178,-0.055 0.0367,-0.0917 -0.0367,-0.1651 -0.055,-0.0734 -0.25682,-0.0917 -0.27517,-0.1651 -0.51365,-0.42192 -0.22013,-0.23848 -0.36689,-0.47695 -0.14675,-0.23848 -0.22013,-0.40358 -0.12841,-0.27517 -0.12841,-0.3302 0.0183,-0.0734 0.22013,-0.1651 0.20179,-0.14675 0.29351,-0.0917 0.11007,0.055 0.25683,0.36689 0.23847,0.42192 0.80715,0.64205 0.58702,0.22013 1.30245,0.20179 0.73378,-0.0367 1.39418,-0.3302 0.67874,-0.27517 0.84384,-0.56868 0.18344,-0.31185 -0.12841,-0.78881 -0.055,-0.14675 -0.12841,-0.23847 -0.0734,-0.0917 -0.23848,-0.23848 -0.14676,-0.14676 -0.4953,-0.47695 -0.27516,-0.12842 -0.51364,-0.23848 -0.22013,-0.11007 -0.47696,-0.23848 -0.29351,-0.14675 -0.71543,-0.42192 -0.40357,-0.29351 -0.77046,-0.64205 -0.36689,-0.34855 -0.53199,-0.64206 -0.29351,-0.27516 -0.44027,-0.75212 -0.14675,-0.4953 -0.11006,-1.04563 0.0367,-0.55033 0.27516,-0.9906 0.11007,-0.25682 0.36689,-0.62371 0.27517,-0.38523 0.60537,-0.77046 0.3302,-0.38523 0.64205,-0.69709 0.31186,-0.31185 0.51364,-0.44026 0.14676,-0.14676 0.31186,-0.29351 0.1651,-0.1651 0.1651,-0.1651 0.0183,-0.0917 0.055,-0.0917 0.055,0 0.055,0 0.0917,-0.055 0.40358,-0.18344 0.31186,-0.12841 0.67874,-0.47695 1.22908,-0.58703 1.99954,-0.86219 0.77047,-0.27517 1.26577,-0.27517 v 0 0 q 0.45861,0.0183 0.8255,0.22014 0.38523,0.18344 0.62371,0.49529 0.25682,0.31186 0.31185,0.75212 0.12841,0.44027 -0.0734,1.02729 -0.20179,0.56868 -0.60536,1.08232 -0.38524,0.4953 -0.84385,0.75212 -0.51364,0.22013 -0.69708,0.20179 -0.1651,-0.0367 -0.14676,-0.38523 0,-0.14676 0.0917,-0.34855 0.11007,-0.20179 0.56868,-0.71543 0.58702,-0.86219 0.71543,-1.37583 0.12841,-0.51364 -0.23847,-0.56867 -0.11007,-0.0367 -0.40358,0 -0.27517,0.0367 -0.62371,0.11006 -0.3302,0.055 -0.56868,0.12841 -0.23847,0.055 -0.23847,0.0917 0,0 0,0.055 0,0.055 -0.0734,0.0367 -0.0367,0 -0.31186,0.14675 -0.27516,0.14676 -0.6604,0.38523 -0.38523,0.23848 -0.77046,0.47696 -0.38523,0.23848 -0.6604,0.42192 -0.25682,0.1651 -0.27516,0.20179 -0.0367,0.20179 -0.42193,0.36689 -0.36688,0.22013 -0.67874,0.64205 -0.29351,0.42192 -0.6604,1.04563 -0.31185,0.42192 -0.44026,0.91722 -0.12841,0.47696 0,0.77047 0.0917,0.29351 0.56867,0.75212 0.47696,0.45861 1.19239,0.88053 0.62371,0.34854 1.11901,0.69708 0.4953,0.3302 0.80715,0.64206 0.3302,0.31185 0.44027,0.55033 0.22013,0.31186 0.31185,0.64205 0.11007,0.31186 0.11007,0.60537 0.0183,0.29351 -0.055,0.53199 -0.12842,0.29351 -0.45861,0.60536 -0.31186,0.31186 -0.53199,0.29351 -0.20179,0.055 -0.31186,0.12841 -0.0917,0.0734 -0.22013,0.12841 -0.12841,0.0734 -0.55033,0.14676 -0.40358,0.0734 -0.89888,0.0917 -0.4953,0.0367 -0.91722,0.0183 z"
         style="font-family:Caveat;-inkscape-font-specification:Caveat;fill:#000080;stroke:#000080"
         id="path4883" />
    </g>
  </g>
</svg>
